<svg width="32" height="32" viewBox="0 0 32 32" fill="none" xmlns="http://www.w3.org/2000/svg">
<g filter="url(#filter0_d)">
<path d="M5.75674 2.16305H23.6364C23.6902 2.16305 23.7394 2.18312 23.7898 2.19818L24.2293 0.766473C24.3691 0.311172 24.7927 0 25.2727 0H27.4545C27.7558 0 28 0.242124 28 0.540774V1.62227C28 1.92092 27.7558 2.16305 27.4545 2.16305H26.0807L22.6727 13.266L23.9455 14.7381C24.4486 15.32 24.6752 16.1217 24.4436 16.8528C24.1475 17.7879 23.315 18.3857 22.3553 18.3857H6.72726C6.42601 18.3857 6.18179 18.1436 6.18179 17.8449V16.7634C6.18179 16.4648 6.42601 16.2227 6.72726 16.2227H22.3553L20.6262 14.2228C20.5828 14.1725 20.5508 14.1157 20.5178 14.0596H9.94778C9.10234 14.0596 8.33299 13.5756 7.97299 12.8172L4.1667 4.79863C4.05753 4.56786 4 4.31175 4 4.05771V3.90456C4 2.9428 4.78653 2.16305 5.75674 2.16305Z" fill="#F9FBFF"/>
<path d="M21.5717 23.4C20.3883 23.4 19.4289 22.4646 19.4289 21.3107C19.4289 20.1568 20.3883 19.2214 21.5717 19.2214C22.7552 19.2214 23.7146 20.1568 23.7146 21.3107C23.7146 22.4646 22.7552 23.4 21.5717 23.4Z" fill="white"/>
<path d="M8.71432 23.4C7.53085 23.4 6.57146 22.4646 6.57146 21.3107C6.57146 20.1568 7.53085 19.2214 8.71432 19.2214C9.89779 19.2214 10.8572 20.1568 10.8572 21.3107C10.8572 22.4646 9.89779 23.4 8.71432 23.4Z" fill="white"/>
</g>
<defs>
<filter id="filter0_d" x="0" y="0" width="32" height="31.4" filterUnits="userSpaceOnUse" color-interpolation-filters="sRGB">
<feFlood flood-opacity="0" result="BackgroundImageFix"/>
<feColorMatrix in="SourceAlpha" type="matrix" values="0 0 0 0 0 0 0 0 0 0 0 0 0 0 0 0 0 0 127 0"/>
<feOffset dy="4"/>
<feGaussianBlur stdDeviation="2"/>
<feColorMatrix type="matrix" values="0 0 0 0 0 0 0 0 0 0 0 0 0 0 0 0 0 0 0.25 0"/>
<feBlend mode="normal" in2="BackgroundImageFix" result="effect1_dropShadow"/>
<feBlend mode="normal" in="SourceGraphic" in2="effect1_dropShadow" result="shape"/>
</filter>
</defs>
</svg>
